<svg xmlns="http://www.w3.org/2000/svg" viewBox="0 0 64 64">
  <defs>
    <linearGradient id="f" x1="0" y1="0" x2="0" y2="1">
      <stop offset="0" stop-color="#2b1157"/><stop offset="1" stop-color="#150829"/>
    </linearGradient>
    <linearGradient id="e" x1="0" y1="0" x2="1" y2="1">
      <stop offset="0" stop-color="#a78bfa"/><stop offset="0.55" stop-color="#c084fc"/><stop offset="1" stop-color="#e879f9"/>
    </linearGradient>
    <linearGradient id="o" x1="0" y1="0" x2="1" y2="1">
      <stop offset="0" stop-color="#ddd6fe"/><stop offset="1" stop-color="#f0abfc"/>
    </linearGradient>
    <linearGradient id="g" x1="0" y1="0" x2="0" y2="1">
      <stop offset="0" stop-color="#f6e27a"/><stop offset="0.55" stop-color="#dfaf4b"/><stop offset="1" stop-color="#b07d2e"/>
    </linearGradient>
  </defs>
  <path d="M32 3.5C38.4 6.4 46.9 8.2 54.9 8.8C56.1 8.9 57 9.9 57 11.1V29C57 45.4 46.5 55.6 32.9 60.3C32.3 60.5 31.7 60.5 31.1 60.3C17.5 55.6 7 45.4 7 29V11.1C7 9.9 7.9 8.9 9.1 8.8C17.1 8.2 25.6 6.4 32 3.5Z" fill="url(#f)" stroke="url(#e)" stroke-width="1.6"/>
  <path d="M24.5 17.5L26.8 11.2L30 15.2L32 9.5L34 15.2L37.2 11.2L39.5 17.5Z" fill="url(#g)"/>
  <g stroke="url(#o)" fill="none">
    <circle cx="32" cy="31" r="10.5" stroke-width="1.5"/>
    <ellipse cx="32" cy="31" rx="10.5" ry="3.9" stroke-width="1" opacity="0.9"/>
    <ellipse cx="32" cy="31" rx="3.9" ry="10.5" stroke-width="1" opacity="0.9"/>
    <ellipse cx="32" cy="31" rx="14.5" ry="4.6" stroke-width="1.1" opacity="0.75" transform="rotate(-20 32 31)"/>
  </g>
  <path d="M20.8 42.2Q32 50.5 43.2 42.2" fill="none" stroke="url(#g)" stroke-width="2.2" stroke-linecap="round"/>
  <circle cx="20.8" cy="42.2" r="1.15" fill="url(#g)"/>
  <circle cx="43.2" cy="42.2" r="1.15" fill="url(#g)"/>
</svg>
